<?xml version="1.0" encoding="utf-8"?>
<!-- Generator: Adobe Illustrator 21.0.0, SVG Export Plug-In . SVG Version: 6.00 Build 0)  -->
<svg version="1.1" id="Layer_1" xmlns="http://www.w3.org/2000/svg" xmlns:xlink="http://www.w3.org/1999/xlink" x="0px" y="0px"
	 viewBox="0 0 200 179" style="enable-background:new 0 0 200 179;" xml:space="preserve">
<style type="text/css">
	.st0{fill:#FBCF44;}
</style>
<g>
	<path class="st0" d="M75.7,143.4c8.9,0,16.2,7.2,16.2,16.2c0,8.9-7.2,16.2-16.2,16.2c-8.9,0-16.2-7.2-16.2-16.2
		C59.5,150.6,66.7,143.4,75.7,143.4"/>
	<path class="st0" d="M146.2,143.4c8.9,0,16.2,7.2,16.2,16.2c0,8.9-7.2,16.2-16.2,16.2c-8.9,0-16.2-7.2-16.2-16.2
		C130,150.6,137.3,143.4,146.2,143.4"/>
	<path class="st0" d="M187.4,54.8H87.6c0,0-5.9,1.3-5.9,7.8c0,6.5,5.9,8.4,5.9,8.4H177l-5,17H84.1c0,0-5.5,1.2-5.5,7.3
		c0,6.1,5.5,7.8,5.5,7.8h83.3h0.2l-4.7,15.9H72.1l-6-48l-1.9-16.2c0,0-1.8-15-2.7-21.1c-1-6.2-16.5-14-49.8-29.7
		C3.7,0.7-2.9,15,11.5,22.5l26.3,12.3c0,0,6.1,3.6,6.6,8.3C45,47.9,55.6,127,55.6,127s0.4,11,10.4,11h100.3c8.4,0,10-8.8,10-8.8
		l19.9-59C196.3,70.2,202.2,54.8,187.4,54.8"/>
</g>
</svg>
