<?xml version="1.0" encoding="utf-8"?>
<!-- Generator: Adobe Illustrator 21.0.0, SVG Export Plug-In . SVG Version: 6.00 Build 0)  -->
<svg version="1.1" id="Layer_1" xmlns="http://www.w3.org/2000/svg" xmlns:xlink="http://www.w3.org/1999/xlink" x="0px" y="0px"
	 viewBox="0 0 200 200" style="enable-background:new 0 0 200 200;" xml:space="preserve">
<style type="text/css">
	.st0{fill:#1BADA2;}
</style>
<path class="st0" d="M184.9,34.8c-8.2-10-18.6-16.6-31.1-19.7c-3.2-0.8-6.4-1.3-9.7-1.5c-0.2,0-0.5,0.1-0.7-0.2h-6.8
	c-1.5,0.2-2.9,0.4-4.4,0.6c-10.3,1.4-19.6,5.3-27.8,11.7c-1.2,0.9-2.4,1.9-3.5,3c-0.7,0.7-1.1,0.5-1.7,0c-3.6-3.2-7.6-5.9-11.9-8.1
	c-6.9-3.5-14.3-5.6-22-6.1C49.2,13.3,35,18,22.8,28.5C12.9,37.1,6.7,47.9,4.1,60.8c-0.5,2.4-0.8,4.8-0.9,7.2c0,0.1,0,0.3-0.2,0.4
	v7.4c0.4,1.3,0.4,2.7,0.5,4.1c1.3,9.5,4.8,18.2,10.4,26c2.3,3.2,4.9,6,7.7,8.8C35.3,128.4,49,142,62.7,155.7
	C74.8,167.8,86.9,179.9,99,192c0.3,0.3,0.7,0.4,0.7,0.9h0.8c0-0.4,0.4-0.6,0.6-0.8c26.1-26.1,52.3-52.3,78.5-78.4
	c7.9-7.9,13.7-17,16.5-27.9c0.9-3.5,1.5-7,1.7-10.5c0-0.2,0-0.4,0.2-0.5V68c-0.4-1.4-0.4-2.9-0.5-4.4
	C195.9,52.9,191.7,43.2,184.9,34.8z"/>
</svg>
