<?xml version="1.0" encoding="utf-8"?>
<!-- Generator: Adobe Illustrator 21.0.0, SVG Export Plug-In . SVG Version: 6.00 Build 0)  -->
<svg version="1.1" id="Layer_1" xmlns="http://www.w3.org/2000/svg" xmlns:xlink="http://www.w3.org/1999/xlink" x="0px" y="0px"
	 viewBox="0 0 200 200" style="enable-background:new 0 0 200 200;" xml:space="preserve">
<style type="text/css">
	.st0{fill-rule:evenodd;clip-rule:evenodd;fill:#8A5D3B;}
	.st1{fill-rule:evenodd;clip-rule:evenodd;fill:#FBCE43;}
	.st2{fill:#FBCE43;}
	.st3{fill:#1CADA2;}
	.st4{opacity:0.2;fill:#231F20;}
	.st5{fill:none;}
	.st6{fill-rule:evenodd;clip-rule:evenodd;fill:#1B1312;}
	.st7{fill-rule:evenodd;clip-rule:evenodd;fill:#FFFFFF;}
	.st8{fill:#231F20;}
	.st9{fill:none;stroke:#ECCE2E;stroke-miterlimit:10;}
	.st10{fill-rule:evenodd;clip-rule:evenodd;fill:#72492E;}
	.st11{fill:#095C8E;}
	.st12{fill:#441611;}
	.st13{opacity:0.2;fill-rule:evenodd;clip-rule:evenodd;fill:#231F20;}
	.st14{opacity:0.2;fill:none;}
</style>
<g>
	<path class="st0" d="M160.1,23c0,10.8-8.8,19.6-19.6,19.6s-19.6-8.8-19.6-19.6c0-10.8,8.8-19.6,19.6-19.6S160.1,12.2,160.1,23"/>
	<path class="st1" d="M152.9,23c0,6.8-5.5,12.4-12.4,12.4c-6.8,0-12.4-5.5-12.4-12.4c0-6.8,5.5-12.4,12.4-12.4
		C147.3,10.7,152.9,16.2,152.9,23"/>
	<path class="st0" d="M78.7,23c0,10.8-8.8,19.6-19.6,19.6c-10.8,0-19.6-8.8-19.6-19.6c0-10.8,8.8-19.6,19.6-19.6
		C70,3.4,78.7,12.2,78.7,23"/>
	<path class="st1" d="M71.5,23c0,6.8-5.5,12.4-12.4,12.4c-6.8,0-12.4-5.5-12.4-12.4c0-6.8,5.5-12.4,12.4-12.4
		C65.9,10.7,71.5,16.2,71.5,23"/>
	<path class="st0" d="M166.9,138c0,22.1-13.1,41.4-32.7,51.8c-9.9,5.3-21.4,4-33.7,4c-12.6,0-24.4,1.1-34.4-4.4
		c-19.2-10.5-32-29.6-32-51.4c0-33.2,29.7-60.1,66.4-60.1S166.9,104.8,166.9,138"/>
	<path class="st2" d="M69.2,85c-4.6,8.8-8.5,17.9-12.1,27.1c-2.4,6.2-4.6,12.5-6.4,19c-0.8,3.1-1.5,6.5-1.5,9.8
		c0,3.3,1.1,6.4,1.7,9.6c5.1,13,10.1,26,15.2,39c0,0,2.4,4.7,36.5,4.5c34-0.1,36.3-6.9,36.3-6.9s8.1-23.3,11.8-38.6
		c0.9-3.6,1-7.9,0.1-11.6c-0.4-1.6-0.8-3.2-1.2-4.9c-0.8-2.9-1.6-5.9-2.5-8.8c-1.9-5.9-4.2-11.7-6.7-17.4c-1.4-3.2-2.8-6.4-4.2-9.5
		c-0.8-1.8-1.6-3.6-2.4-5.4c-0.3-0.6-2.3-6-2.7-6H69.2z"/>
	<path class="st2" d="M167.7,114.9l-20.8,8l-16.1-38.3c4.1,1.3,8.9,3.4,13.9,6.4C157.1,98.6,164.1,108.7,167.7,114.9"/>
	<path class="st0" d="M154,48.7c0,24.5-24.1,44.3-53.8,44.3c-29.7,0-53.8-19.9-53.8-44.3c0-24.5,24.1-35.6,53.8-35.6
		C129.9,13.1,154,24.2,154,48.7"/>
	<polygon class="st3" points="166.3,112.5 146,120.9 145.7,119.7 165.6,111.6 	"/>
	<path class="st1" d="M126.7,68.4c0,12.1-11.9,21.9-26.5,21.9c-14.6,0-26.5-9.8-26.5-21.9c0-12.1,11.9-21.9,26.5-21.9
		C114.8,46.5,126.7,56.3,126.7,68.4"/>
	<path class="st4" d="M148.5,122.3c0,0-7.1-17.1-9.5-18.6c0,0,7.8,17.6,7.7,19.3L148.5,122.3z"/>
	<rect x="139" y="103.8" class="st5" width="9.5" height="19.3"/>
	<path class="st6" d="M110.8,54.8c0,5.8-4.7,10.5-10.5,10.5c-5.8,0-10.5-4.7-10.5-10.5c0-5.8,4.7-5,10.5-5
		C106.1,49.8,110.8,49,110.8,54.8"/>
	<path class="st6" d="M79,52.2c0,1.6-1.3,3-3,3c-1.6,0-3-1.3-3-3c0-1.6,1.3-3,3-3C77.7,49.2,79,50.5,79,52.2"/>
	<path class="st7" d="M76.5,51.2c0,0.6-0.5,1.2-1.2,1.2c-0.6,0-1.2-0.5-1.2-1.2c0-0.6,0.5-1.2,1.2-1.2C76,50,76.5,50.6,76.5,51.2"/>
	<path class="st7" d="M77.7,53.1c0,0.3-0.3,0.6-0.6,0.6c-0.3,0-0.6-0.3-0.6-0.6c0-0.3,0.3-0.6,0.6-0.6
		C77.4,52.5,77.7,52.8,77.7,53.1"/>
	<path class="st6" d="M127.8,52.2c0,1.6-1.3,3-3,3c-1.6,0-3-1.3-3-3c0-1.6,1.3-3,3-3C126.4,49.2,127.8,50.5,127.8,52.2"/>
	<path class="st7" d="M126.6,51.2c0,0.6-0.5,1.2-1.1,1.2c-0.6,0-1.2-0.5-1.2-1.2c0-0.6,0.5-1.2,1.2-1.2
		C126.1,50,126.6,50.6,126.6,51.2"/>
	<path class="st7" d="M124.4,53.1c0,0.3-0.3,0.6-0.6,0.6c-0.3,0-0.6-0.3-0.6-0.6c0-0.3,0.3-0.6,0.6-0.6
		C124.1,52.5,124.4,52.8,124.4,53.1"/>
	<path class="st2" d="M32.3,115.3l20.8,8L69.2,85c-4.6,1.7-10.4,4.3-16.3,8.4C42.2,100.7,35.8,109.5,32.3,115.3"/>
	<polygon class="st3" points="34.1,112.5 54,120.8 54.6,119.7 34.7,111.6 	"/>
	<rect x="100.1" y="30.6" class="st2" width="0.8" height="2.7"/>
	<rect x="100.1" y="34.5" class="st2" width="0.8" height="2.7"/>
	<rect x="100.1" y="38.4" class="st2" width="0.8" height="2.7"/>
	<rect x="100.1" y="42.3" class="st2" width="0.8" height="2.7"/>
	<rect x="100.1" y="15" class="st2" width="0.8" height="2.7"/>
	<rect x="100.1" y="18.9" class="st2" width="0.8" height="2.7"/>
	<rect x="100.1" y="22.9" class="st2" width="0.8" height="2.7"/>
	<rect x="100.1" y="26.8" class="st2" width="0.8" height="2.7"/>
	<path class="st4" d="M51.7,122.8c0,0,7.1-17,9.4-18.5c0,0-7.8,17.5-7.7,19.2L51.7,122.8z"/>
	<rect x="51.7" y="104.3" class="st5" width="9.4" height="19.2"/>
	<path class="st3" d="M145.6,119.4l-11.3,2.3c0-0.3,0,0.3,0,0l0,0.3c-0.1-5.4-0.7-11.6-1.5-18c-0.9-6.7-2.1-12.7-3.4-18.1
		c-1.1,0.8-9.2,4-9.2,4c1.8,3.5,3.8,30.4,4,32c-7.1,1.1-15.5,1.8-24.9,1.8c-8.7,0-16.5-0.8-23.2-1.8c0.3-5.1,0.8-10.4,1.4-16.1
		c0.6-5.3,1.3-10.6,2.4-15.9c-3-1.3-6.1-2.7-9.1-4c0.1,0-0.8,3.3-0.9,3.6c-0.3,1.2-0.5,2.5-0.8,3.7c-0.5,2.5-0.9,5-1.3,7.5
		c-0.7,5-1.2,10.1-1.4,15.2c-0.1,1.3-0.1,2.6-0.1,3.9c0,1.1-0.3,1.8-0.3,1.8l-11.1-2.4c0,0-8.8,18.5-7.4,30.6l21.3,41
		c7.1,2.2,13.3,3.4,17.7,4c19.4,2.7,34-0.5,37.6-1.4c4.8-1.1,8.6-2.5,11.2-3.4c5.2-13.9,10.3-27.8,15.5-41.7
		C150.7,148.4,154.8,140.3,145.6,119.4"/>
	<path class="st8" d="M76.3,38.1c1,0,1.9,0.2,2.6,0.5l-0.4,0.9c-0.2-0.1-4-1.7-5.5,1.7L72,40.9C73,38.7,74.7,38.1,76.3,38.1"/>
	<path class="st8" d="M76.3,38.1c1,0,1.9,0.2,2.6,0.5l-0.4,0.9c-0.2-0.1-4-1.7-5.5,1.7L72,40.9C73,38.7,74.7,38.1,76.3,38.1"/>
	<path class="st8" d="M124.8,37.7c-1,0-1.9,0.2-2.6,0.5l0.4,0.9c0.2-0.1,4-1.7,5.5,1.7l0.9-0.4C128.1,38.3,126.4,37.7,124.8,37.7"/>
	<path class="st8" d="M124.8,37.7c-1,0-1.9,0.2-2.6,0.5l0.4,0.9c0.2-0.1,4-1.7,5.5,1.7l0.9-0.4C128.1,38.3,126.4,37.7,124.8,37.7"/>
	<path class="st9" d="M65.9,133c-0.1,0.3-0.1,0.7-0.1,1.1c0.2,8.5,0.4,17.2,3.6,25c0.3,0.9,0.8,1.7,1.6,2.2c0.7,0.4,1.5,0.5,2.3,0.5
		c17.8,1,35.7,1,53.6,0c1.1-0.1,2.4-0.2,3-1.1c0.3-0.3,0.4-0.8,0.5-1.2c2.6-8.1,4.3-16.4,4.9-24.9c0.1-0.7,0.1-1.6-0.3-2.2
		c-0.1-0.2-0.3-0.5-0.6-0.7c-0.2-0.2-0.5-0.2-0.7-0.2c-1-0.1-1.9,0-2.9,0c-0.6,0-1.2,0.1-1.7,0.1c-19.8,1.5-39.7,1.4-59.5-0.2
		C68.2,131.5,66.3,131.7,65.9,133C65.9,133,65.9,133,65.9,133z"/>
	<path class="st10" d="M131.5,149.6c-11.4,6-15.7,20.2-9.7,31.6c6,11.4,20.2,15.7,31.6,9.7c11.4-6,15.7-20.2,9.7-31.6
		C157,147.9,142.9,143.6,131.5,149.6"/>
	<path class="st0" d="M132.3,151.6c-11,5.8-15.2,19.4-9.3,30.4c5.8,11,19.4,15.2,30.4,9.3c11-5.8,15.2-19.4,9.3-30.4
		C156.8,150,143.2,145.8,132.3,151.6"/>
	<path class="st1" d="M132.4,175.7c0,5.2,4.2,9.4,9.4,9.4s9.4-4.2,9.4-9.4c0-5.2-4.2-9.4-9.4-9.4S132.4,170.5,132.4,175.7"/>
	<path class="st1" d="M153.9,174.9c0,2.1,1.7,3.8,3.8,3.8c2.1,0,3.8-1.7,3.8-3.8c0-2.1-1.7-3.8-3.8-3.8
		C155.6,171.1,153.9,172.8,153.9,174.9"/>
	<path class="st1" d="M150.7,163.1c0,2.1,1.7,3.8,3.8,3.8c2.1,0,3.8-1.7,3.8-3.8c0-2.1-1.7-3.8-3.8-3.8
		C152.4,159.2,150.7,161,150.7,163.1"/>
	<path class="st1" d="M139,159.2c0,2.1,1.7,3.8,3.8,3.8c2.1,0,3.8-1.7,3.8-3.8c0-2.1-1.7-3.8-3.8-3.8
		C140.7,155.4,139,157.1,139,159.2"/>
	<path class="st10" d="M46.8,149.6c-11.4,6-15.7,20.2-9.7,31.6c6,11.4,20.2,15.7,31.6,9.7c11.4-6,15.7-20.2,9.7-31.6
		C72.4,147.9,58.2,143.6,46.8,149.6"/>
	<path class="st0" d="M78.9,164.8c3.6,11.9-3,24.4-14.9,28.1c-11.9,3.6-24.4-3-28.1-14.9c-3.6-11.9,3-24.4,14.9-28.1
		C62.7,146.3,75.2,153,78.9,164.8"/>
	<path class="st1" d="M69.6,175.7c0,5.2-4.2,9.4-9.4,9.4c-5.2,0-9.4-4.2-9.4-9.4c0-5.2,4.2-9.4,9.4-9.4
		C65.4,166.3,69.6,170.5,69.6,175.7"/>
	<path class="st1" d="M48.1,174.9c0,2.1-1.7,3.8-3.8,3.8c-2.1,0-3.8-1.7-3.8-3.8c0-2.1,1.7-3.8,3.8-3.8
		C46.4,171.1,48.1,172.8,48.1,174.9"/>
	<path class="st1" d="M51.3,163.1c0,2.1-1.7,3.8-3.8,3.8c-2.1,0-3.8-1.7-3.8-3.8c0-2.1,1.7-3.8,3.8-3.8
		C49.6,159.2,51.3,161,51.3,163.1"/>
	<path class="st1" d="M63,159.2c0,2.1-1.7,3.8-3.8,3.8c-2.1,0-3.8-1.7-3.8-3.8c0-2.1,1.7-3.8,3.8-3.8C61.3,155.4,63,157.1,63,159.2"
		/>
	<path class="st2" d="M77.5,144.8c0.2-0.2,0.4-0.3,0.5-0.5c0.2-0.3,0.4-0.8,0.4-1.3c0-0.8-0.4-1.2-1.1-1.9c-0.5-0.5-0.8-1-1.1-1.3
		l-0.1-0.1c-0.4-0.6-0.8-0.6-1.1-0.6c-0.5,0.1-1,0.5-1.1,0.9c-0.1,0.3-0.1,0.7,0,1c0.3,0.7,1.1,1,1.5,1.2c0.5,0.2,1.1,0.5,1.1,0.9
		c0,0.3-0.1,0.5-0.2,0.7c0,0-0.1,0.1-0.4,0c-0.1,0-0.1,0-0.2,0c-0.3,0-1.1-0.1-1.4,0.3c-0.3,0.3-0.3,1.1,0,1.5
		c0.5,0.5,1.3,0.3,1.5,0.3c0.3,0,0.4,0,0.7,0.3c0.3,0.4,0.4,0.8,0.4,1.2c0,0.4-0.1,0.8-0.4,1.1c-0.2,0.2-0.7,0.4-1.2,0.4
		c-0.5,0-0.9-0.2-1-0.4c-0.3-0.4-0.2-0.8-0.1-1.2c0.1-0.2,0.1-0.4,0.1-0.6c0-0.5-0.2-0.9-0.7-1.1c-0.5-0.2-1.1-0.1-1.5,0.3
		c-0.8,0.8-0.6,2.7,0.3,3.7c0.7,0.8,1.6,1.2,2.9,1.2c1.1,0,2-0.3,2.6-1c0.6-0.7,0.9-1.4,0.9-2.2c0-0.6-0.2-1.2-0.5-1.7
		C78.1,145.3,77.8,145.1,77.5,144.8"/>
	<path class="st2" d="M95.2,145c0.2-0.2,0.4-0.3,0.5-0.5c0.2-0.3,0.4-0.8,0.4-1.3c0-0.8-0.4-1.2-1.1-1.9c-0.5-0.5-0.8-1-1.1-1.3
		l-0.1-0.1c-0.4-0.6-0.8-0.6-1.1-0.6c-0.5,0.1-1,0.5-1.1,0.9c-0.1,0.3-0.1,0.7,0,1c0.3,0.7,1.1,1,1.5,1.2c0.5,0.2,1.1,0.5,1.1,0.9
		c0,0.3-0.1,0.5-0.2,0.7c0,0-0.1,0.1-0.4,0c-0.1,0-0.1,0-0.2,0c-0.3,0-1.1-0.1-1.4,0.3c-0.3,0.3-0.3,1.1,0,1.5
		c0.5,0.5,1.3,0.3,1.5,0.3c0.3,0,0.4,0,0.7,0.3c0.3,0.4,0.4,0.8,0.4,1.2c0,0.4-0.1,0.8-0.4,1.1c-0.2,0.2-0.7,0.4-1.2,0.4
		c-0.5,0-0.9-0.2-1-0.4c-0.3-0.4-0.2-0.8-0.1-1.2c0.1-0.2,0.1-0.4,0.1-0.6c0-0.5-0.2-0.9-0.7-1.1c-0.5-0.2-1.1-0.1-1.5,0.3
		c-0.8,0.8-0.6,2.7,0.3,3.7c0.7,0.8,1.6,1.2,2.9,1.2c1.1,0,2-0.3,2.6-1c0.6-0.7,0.9-1.4,0.9-2.2c0-0.6-0.2-1.2-0.5-1.7
		C95.9,145.6,95.6,145.3,95.2,145"/>
	<path class="st2" d="M85,139.6c-0.5,0-1.2,0.2-1.7,0.9c-0.3-0.5-0.8-1-1.4-1.2c-0.3-0.1-0.8-0.1-1.3,0.4c-0.2,0.2-0.4,0.8-0.3,1.3
		c0.1,0.2,0.2,0.5,0.7,0.5c1.5,0.1,1.6,0.3,1.6,0.9c-0.1,0.4-0.1,1.2,0,1.5c0.2,0.3,0.5,0.5,0.9,0.5c0.4,0,0.7-0.2,0.8-0.5
		c0.2-0.3,0.1-1.2,0-1.5c0-1.1,0.4-1.1,0.6-1.1c0.4,0,0.8,0.1,0.8,1v4.4c0,0.8-0.2,1.4-0.5,1.7c-0.4,0.3-0.7,0.5-1.1,0.5
		c-0.3,0-1-0.1-1.4-0.6c-0.1-0.2-0.2-0.5-0.1-0.8l0-0.1c0.1-0.4,0.3-1,0.2-1.5c-0.1-0.3-0.4-0.6-0.8-0.8c-0.4-0.1-0.7-0.1-1,0.2
		c-0.7,0.5-0.7,1.3-0.7,1.8c0,1,0.4,1.9,1.1,2.5c0.7,0.6,1.6,0.9,2.6,0.9c0.9,0,1.8-0.3,2.5-0.9c0.7-0.6,1.1-1.6,1.1-2.9v-4.4
		C87.7,140.6,86.8,139.6,85,139.6"/>
	<path class="st2" d="M102.3,139.9L102.3,139.9c-0.2-0.2-0.6-0.5-1.2-0.5c-0.3,0-0.6,0.1-0.8,0.4c-0.3,0.3-0.4,0.6-0.4,0.9
		c0.1,1,1.2,1.9,2,2.6l0.2,0.2c0.9,0.8,1.4,1.7,1.3,2.8c0,1.2-0.4,1.9-0.8,2.2c-0.3,0.3-0.7,0.4-0.8,0.3c-0.5,0-0.9-0.3-1.2-0.7
		c-0.4-0.6-0.6-1.3-0.5-1.7c0-0.2,0.1-0.4,0.2-0.6c0.2-0.4,0.4-1,0-1.7c-0.2-0.4-1-0.6-1.4-0.4c-0.7,0.3-0.8,1.2-0.8,2.1
		c0,1.4,0.3,2.5,1,3.4c0.7,0.9,1.6,1.3,2.7,1.3c1,0,2-0.4,2.6-1.2c0.6-0.7,1-1.5,1-2.8c0-1.5-0.2-2.5-0.9-3.8
		C103.8,141.5,103.3,140.9,102.3,139.9"/>
	<path class="st2" d="M114.6,144.5c0.3-0.2,0.6-0.5,0.6-0.8c0.1-0.4,0.2-0.7,0.2-1c0-0.7-0.4-1.3-1.2-1.7c-0.4-0.2-0.5-0.5-0.7-0.7
		c-0.1-0.1-0.2-0.3-0.3-0.4c-0.2-0.2-0.5-0.3-0.7-0.3c-0.3,0-0.7,0-0.9,0.3c-0.3,0.3-0.4,0.6-0.3,1c0.1,0.7,0.9,1.2,1.4,1.4
		c0.5,0.2,0.7,0.4,0.7,0.7c0,0.4-0.1,0.6-0.2,0.7c-0.1,0.1-0.3,0.2-0.4,0.2c-0.3-0.1-0.9-0.2-1.2,0.1c-0.2,0.3-0.3,0.6-0.3,0.9
		c0,0.3,0.2,0.5,0.4,0.6c0.4,0.3,1.1,0.2,1.3,0.1c0.6,0,0.8,0.2,0.8,1.1c0,0.8-0.2,1.3-0.5,1.7c-0.4,0.4-0.8,0.6-1.4,0.6
		c-0.8,0-1.3-0.4-1.8-1.1c-0.5-0.8-0.7-1.9-0.7-2.9c0-0.7,0.4-1.3,0.7-1.8c0.4-0.6,0.8-1.2,0.4-1.9c-0.2-0.3-0.5-0.5-0.9-0.5
		c-0.4,0-0.9,0.2-1.1,0.5c-2,2.8-0.7,6.7,0.2,7.8c0.8,1,2,1.5,3.3,1.5c1,0,1.8-0.3,2.6-0.9c0.8-0.6,1.2-1.6,1.2-2.9
		C115.8,145.8,115.4,145,114.6,144.5"/>
	<path class="st2" d="M128.2,140.6c-0.1-0.1-0.3-0.3-0.4-0.4c0,0-0.1-0.1-0.2-0.1c-0.2-0.1-0.4-0.2-0.6-0.3
		c-0.4-0.1-0.7-0.2-1.1-0.2c-0.3,0-0.6,0-0.9,0.1c-0.1,0-0.1,0-0.2,0.1c-0.1,0-0.1,0-0.2,0.1l0,0c-0.1,0-0.1,0.1-0.2,0.1
		c-0.1,0-0.1,0.1-0.2,0.1c-0.3,0.2-0.6,0.5-0.8,0.9c-0.6-1-1.4-1.4-2.5-1.4c-0.9,0-1.7,0.3-2.3,1c-0.5,0.6-1.3,1.6-1.3,3.9
		c0,2.3,1,4.1,2.9,5.2c0.2,0.1,0.5,0.2,0.7,0.2c0.3,0,0.6-0.1,0.8-0.2c0.4-0.2,0.5-0.6,0.5-0.9c-0.1-1-0.7-1.5-1.3-2
		c-0.6-0.5-1.2-1-1.3-1.9c-0.2-1.7,0.2-2.7,0.4-3c0.3-0.3,0.6-0.5,0.9-0.5c0.4,0,0.8,0.2,1.1,0.6c0.3,0.4,0.5,0.9,0.5,1.4
		c-0.1,0.4-0.3,2,0,2.7c0.1,0.3,0.3,0.4,0.6,0.6v0.1h0.4c0.5,0,0.8-0.4,1-0.7c0.3-0.7,0-2.3-0.1-2.6c0-0.4,0.1-0.8,0.4-1.2l0,0
		c0,0,0.1-0.1,0.1-0.1c0.2-0.3,0.4-0.4,0.7-0.5c0,0,0.1,0,0.1,0c0.1,0,0.3,0,0.4,0c0,0,0.1,0,0.1,0l0.1,0c0.2,0.1,0.4,0.2,0.6,0.5
		c0.3,0.3,0.7,1.3,0.4,3l0,0c-0.1,1-0.7,1.4-1.3,1.9c-0.6,0.5-1.2,1-1.3,2c0,0,0,0.1,0,0.1c0,0.3,0.2,0.7,0.6,0.9
		c0.5,0.3,1,0.3,1.5,0c0.9-0.5,1.6-1.2,2.1-2c0.5-0.9,0.8-2,0.8-3.2C129.5,142.3,128.8,141.2,128.2,140.6"/>
	<path class="st11" d="M101.1,98.8c-1.3,0-2.4,1.1-2.4,2.4c0,1.3,1.1,2.4,2.4,2.4c1.3,0,2.4-1.1,2.4-2.4
		C103.5,99.9,102.4,98.8,101.1,98.8 M101.1,103c-1,0-1.7-0.8-1.7-1.7c0-1,0.8-1.7,1.7-1.7c1,0,1.7,0.8,1.7,1.7
		C102.9,102.2,102.1,103,101.1,103"/>
	<path class="st11" d="M100.6,100.6c-0.1,0-0.3,0.1-0.3,0.3c0,0.1,0.1,0.3,0.3,0.3c0.1,0,0.3-0.1,0.3-0.3
		C100.9,100.7,100.8,100.6,100.6,100.6"/>
	<path class="st11" d="M101.6,100.6c-0.1,0-0.3,0.1-0.3,0.3c0,0.1,0.1,0.3,0.3,0.3c0.1,0,0.3-0.1,0.3-0.3
		C101.8,100.7,101.7,100.6,101.6,100.6"/>
	<path class="st11" d="M100.6,101.4c-0.1,0-0.3,0.1-0.3,0.3c0,0.1,0.1,0.3,0.3,0.3c0.1,0,0.3-0.1,0.3-0.3
		C100.9,101.5,100.8,101.4,100.6,101.4"/>
	<path class="st11" d="M101.6,101.4c-0.1,0-0.3,0.1-0.3,0.3c0,0.1,0.1,0.3,0.3,0.3c0.1,0,0.3-0.1,0.3-0.3
		C101.8,101.5,101.7,101.4,101.6,101.4"/>
	<path class="st11" d="M101.1,107.1c-1.3,0-2.4,1.1-2.4,2.4c0,1.3,1.1,2.4,2.4,2.4c1.3,0,2.4-1.1,2.4-2.4
		C103.5,108.2,102.4,107.1,101.1,107.1 M101.1,111.3c-1,0-1.7-0.8-1.7-1.7c0-1,0.8-1.7,1.7-1.7c1,0,1.7,0.8,1.7,1.7
		C102.9,110.5,102.1,111.3,101.1,111.3"/>
	<path class="st11" d="M100.6,108.9c-0.1,0-0.3,0.1-0.3,0.3c0,0.1,0.1,0.3,0.3,0.3c0.1,0,0.3-0.1,0.3-0.3
		C100.9,109,100.8,108.9,100.6,108.9"/>
	<path class="st11" d="M101.6,108.9c-0.1,0-0.3,0.1-0.3,0.3c0,0.1,0.1,0.3,0.3,0.3c0.1,0,0.3-0.1,0.3-0.3
		C101.8,109,101.7,108.9,101.6,108.9"/>
	<path class="st11" d="M100.6,109.7c-0.1,0-0.3,0.1-0.3,0.3c0,0.1,0.1,0.3,0.3,0.3c0.1,0,0.3-0.1,0.3-0.3
		C100.9,109.8,100.8,109.7,100.6,109.7"/>
	<path class="st11" d="M101.6,109.7c-0.1,0-0.3,0.1-0.3,0.3c0,0.1,0.1,0.3,0.3,0.3c0.1,0,0.3-0.1,0.3-0.3
		C101.8,109.8,101.7,109.7,101.6,109.7"/>
	<path class="st11" d="M101.1,115.4c-1.3,0-2.4,1.1-2.4,2.4c0,1.3,1.1,2.4,2.4,2.4c1.3,0,2.4-1.1,2.4-2.4
		C103.5,116.5,102.4,115.4,101.1,115.4 M101.1,119.6c-1,0-1.7-0.8-1.7-1.7c0-1,0.8-1.7,1.7-1.7c1,0,1.7,0.8,1.7,1.7
		C102.9,118.8,102.1,119.6,101.1,119.6"/>
	<path class="st11" d="M100.6,117.2c-0.1,0-0.3,0.1-0.3,0.3c0,0.1,0.1,0.3,0.3,0.3c0.1,0,0.3-0.1,0.3-0.3
		C100.9,117.3,100.8,117.2,100.6,117.2"/>
	<path class="st11" d="M101.6,117.2c-0.1,0-0.3,0.1-0.3,0.3c0,0.1,0.1,0.3,0.3,0.3c0.1,0,0.3-0.1,0.3-0.3
		C101.8,117.3,101.7,117.2,101.6,117.2"/>
	<path class="st11" d="M100.6,118c-0.1,0-0.3,0.1-0.3,0.3c0,0.1,0.1,0.3,0.3,0.3c0.1,0,0.3-0.1,0.3-0.3
		C100.9,118.1,100.8,118,100.6,118"/>
	<path class="st11" d="M101.6,118c-0.1,0-0.3,0.1-0.3,0.3c0,0.1,0.1,0.3,0.3,0.3c0.1,0,0.3-0.1,0.3-0.3
		C101.8,118.1,101.7,118,101.6,118"/>
	<path class="st2" d="M70.2,122.1c-1.3,0-2.4,1.1-2.4,2.4c0,1.3,1.1,2.4,2.4,2.4c1.3,0,2.4-1.1,2.4-2.4
		C72.6,123.1,71.5,122.1,70.2,122.1 M70.2,126.2c-1,0-1.7-0.8-1.7-1.7c0-1,0.8-1.7,1.7-1.7c1,0,1.7,0.8,1.7,1.7
		C72,125.4,71.2,126.2,70.2,126.2"/>
	<path class="st2" d="M69.7,123.8c-0.1,0-0.3,0.1-0.3,0.3c0,0.1,0.1,0.3,0.3,0.3c0.1,0,0.3-0.1,0.3-0.3
		C70,123.9,69.9,123.8,69.7,123.8"/>
	<path class="st2" d="M70.7,123.8c-0.1,0-0.3,0.1-0.3,0.3c0,0.1,0.1,0.3,0.3,0.3c0.1,0,0.3-0.1,0.3-0.3
		C70.9,123.9,70.8,123.8,70.7,123.8"/>
	<path class="st2" d="M69.7,124.6c-0.1,0-0.3,0.1-0.3,0.3c0,0.1,0.1,0.3,0.3,0.3c0.1,0,0.3-0.1,0.3-0.3
		C70,124.7,69.9,124.6,69.7,124.6"/>
	<path class="st2" d="M70.7,124.6c-0.1,0-0.3,0.1-0.3,0.3c0,0.1,0.1,0.3,0.3,0.3c0.1,0,0.3-0.1,0.3-0.3
		C70.9,124.7,70.8,124.6,70.7,124.6"/>
	<path class="st2" d="M129.1,122.1c-1.3,0-2.4,1.1-2.4,2.4c0,1.3,1.1,2.4,2.4,2.4c1.3,0,2.4-1.1,2.4-2.4
		C131.5,123.1,130.4,122.1,129.1,122.1 M129.1,126.2c-1,0-1.7-0.8-1.7-1.7c0-1,0.8-1.7,1.7-1.7c1,0,1.7,0.8,1.7,1.7
		C130.8,125.4,130,126.2,129.1,126.2"/>
	<path class="st2" d="M128.6,123.8c-0.1,0-0.3,0.1-0.3,0.3c0,0.1,0.1,0.3,0.3,0.3c0.1,0,0.3-0.1,0.3-0.3
		C128.9,123.9,128.7,123.8,128.6,123.8"/>
	<path class="st2" d="M129.5,123.8c-0.1,0-0.3,0.1-0.3,0.3c0,0.1,0.1,0.3,0.3,0.3c0.1,0,0.3-0.1,0.3-0.3
		C129.8,123.9,129.7,123.8,129.5,123.8"/>
	<path class="st2" d="M128.6,124.6c-0.1,0-0.3,0.1-0.3,0.3c0,0.1,0.1,0.3,0.3,0.3c0.1,0,0.3-0.1,0.3-0.3
		C128.9,124.7,128.7,124.6,128.6,124.6"/>
	<path class="st2" d="M129.5,124.6c-0.1,0-0.3,0.1-0.3,0.3c0,0.1,0.1,0.3,0.3,0.3c0.1,0,0.3-0.1,0.3-0.3
		C129.8,124.7,129.7,124.6,129.5,124.6"/>
	<path class="st12" d="M109,74.5l-0.4-0.9l-0.3,0.1c-0.1,0.1-0.6,0.2-0.7-0.2l-0.2-0.3l-0.9,0.4l0.2,0.3c0.1,0.2,0.2,0.4,0.4,0.5
		c-0.2,0.4-0.5,1.2-1.1,1.9c-0.9,1-2.6,2.3-5.5,2.3c-4.6,0-6.3-3.2-6.7-4.2c0.1-0.1,0.3-0.3,0.4-0.5l0.2-0.3l-0.9-0.4l-0.2,0.3
		c-0.2,0.4-0.6,0.2-0.7,0.2l-0.3-0.1l-0.4,0.9l0.3,0.1c0.1,0.1,0.4,0.1,0.7,0.1c0,0,0,0,0,0c0.5,1.3,2.4,4.9,7.6,4.9
		c5.2,0,7-3.6,7.5-4.9c0.3,0,0.6-0.1,0.7-0.1L109,74.5z"/>
	<path class="st13" d="M54.2,175.9c0-4.3,3.4-7.9,7.7-8.1c-0.2,0-0.3,0-0.5,0c-4.5,0-8.1,3.6-8.1,8.1s3.6,8.1,8.1,8.1
		c0.2,0,0.3,0,0.5,0C57.6,183.7,54.2,180.2,54.2,175.9"/>
	<rect x="53.3" y="167.7" class="st5" width="8.6" height="16.3"/>
	<path class="st13" d="M135.7,175.9c0-4.3,3.4-7.9,7.7-8.1c-0.2,0-0.3,0-0.5,0c-4.5,0-8.1,3.6-8.1,8.1s3.6,8.1,8.1,8.1
		c0.2,0,0.3,0,0.5,0C139.1,183.7,135.7,180.2,135.7,175.9"/>
	<rect x="134.7" y="167.7" class="st5" width="8.6" height="16.3"/>
	<path class="st4" d="M97.4,123.5h-0.4V95.8l0.2,0c3.7-0.2,8.2-2.9,8.2-3l0.8-0.1c-0.2,0.1-5.1,3.1-8.9,3.4V123.5z"/>
	<rect x="97.1" y="92.8" class="st14" width="9.2" height="30.8"/>
</g>
</svg>
